<?xml version="1.0" encoding="utf-8"?>
<!-- Generator: Adobe Illustrator 22.1.0, SVG Export Plug-In . SVG Version: 6.00 Build 0)  -->
<svg version="1.1" id="圖層_1" xmlns="http://www.w3.org/2000/svg" xmlns:xlink="http://www.w3.org/1999/xlink" x="0px" y="0px"
	 viewBox="0 0 60 60" style="enable-background:new 0 0 60 60;" xml:space="preserve">
<style type="text/css">
	.st0{fill:#FFFFFF;}
</style>
<path class="st0" d="M56.4,15.7l-4,4l-12-12l4-4C40.1,1.3,35.2,0,30,0C13.4,0,0,13.4,0,30s13.4,30,30,30s30-13.4,30-30
	C60,24.8,58.7,19.9,56.4,15.7z M46,36.1c-0.5,1.7-2.2,3.5-3.9,4l-26.1,8.7l-1.4-1.4l14-14c0.6,0.3,1.2,0.4,1.9,0.4
	c2.5,0,4.5-2,4.5-4.5c0-2.5-2-4.5-4.5-4.5c-2.5,0-4.5,2-4.5,4.5c0,0.7,0.2,1.3,0.4,1.9l-14,14L11.2,44l8.7-26.1
	c0.6-1.7,2.4-3.4,4-3.9l14.1-4L50,22L46,36.1z"/>
</svg>
